<svg xmlns="http://www.w3.org/2000/svg" xmlns:xlink="http://www.w3.org/1999/xlink" xmlns:sketch="http://www.bohemiancoding.com/sketch/ns" viewBox="0 0 24 22" version="1.1" x="0px" y="0px"><title>time_history_recent</title><description>Created with Sketch (http://www.bohemiancoding.com/sketch)</description><g stroke="none" stroke-width="1" fill="none" fill-rule="evenodd" sketch:type="MSPage"><path d="M2.1813762,9 C3.12188879,3.87976371 7.60786044,0 13,0 C19.0751326,0 24,4.92486744 24,11 C24,17.0751326 19.0751326,22 13,22 C8.48612818,22 4.60727266,19.2811736 2.91172091,15.3918083 L3.71367882,14.7171795 C5.18893756,18.3993438 8.79076069,21 13,21 C18.5228478,21 23,16.5228478 23,11 C23,5.47715222 18.5228478,1 13,1 C8.16208391,1 4.1265768,4.43551918 3.20003621,8.99999999 L2.1813762,9 L2.1813762,9 Z M12.5,11.3496262 L17.7106847,14.4213293 L18.2185145,13.5598719 L13.5,10.7543945 L13.5,4.03173828 L12.5,4.03173828 L12.5,11.3496262 Z M2.5,12 L5,9 L0,9 L2.5,12 Z" fill="#000000" sketch:type="MSShapeGroup"></path></g></svg>